<svg width="114" height="125" viewBox="0 0 114 125" fill="none" xmlns="http://www.w3.org/2000/svg">
<path fill-rule="evenodd" clip-rule="evenodd" d="M35.4215 11.804C30.3306 12.8476 25.4471 15.174 19.617 20.9905C17.105 23.4969 15.1157 27.1691 13.7229 31.0761C12.3351 34.9689 11.7162 38.5926 11.6291 40.5929L11.6246 40.6952L11.6163 40.7973C11.0729 47.4836 13.7813 63.7771 31.2586 89.9326L31.3251 90.0321L31.3871 90.1343C33.8561 94.2041 38.2048 100.347 43.0885 105.395C45.53 107.919 47.9712 110.028 50.2525 111.474C52.594 112.957 54.3254 113.462 55.4625 113.462V124.393C51.395 124.393 47.5851 122.734 44.378 120.702C41.111 118.631 37.9966 115.873 35.205 112.987C29.6643 107.26 24.867 100.482 22.0762 95.8982C4.05853 68.9039 -0.102703 50.1923 0.687076 40.0147C0.842103 36.7806 1.71781 32.1295 3.3994 27.4126C5.09395 22.6596 7.78435 17.336 11.8692 13.2606C19.0507 6.09563 25.8092 2.61443 33.2161 1.09597C38.9677 -0.0831231 45.0969 -0.0314095 51.4386 0.0220952C52.7711 0.0333373 54.1128 0.0446585 55.4625 0.0446585V10.9764C53.8584 10.9764 52.3511 10.9658 50.9245 10.9559C44.6474 10.9119 39.9338 10.8789 35.4215 11.804Z" fill="white"/>
<path fill-rule="evenodd" clip-rule="evenodd" d="M78.6059 12.4218C83.7444 13.7604 88.7169 16.436 94.6516 22.3569C97.1724 24.8718 99.1817 28.5545 100.594 32.4638C102.002 36.3629 102.634 39.9785 102.72 41.9594L102.724 42.0617L102.733 42.1638C103.27 48.7776 100.633 63.6797 83.0905 89.9326L83.024 90.0321L82.9619 90.1344C80.493 94.2041 76.1443 100.348 71.2606 105.395C68.8191 107.919 66.3779 110.028 64.0966 111.474C61.7552 112.958 60.0238 113.462 58.8867 113.462H55.382V124.393H58.8867C62.954 124.393 66.764 122.734 69.971 120.702C73.2382 118.631 76.3525 115.873 79.1442 112.987C84.6847 107.261 89.482 100.482 92.2728 95.8984C110.227 69.0032 114.458 51.621 113.662 41.3809C113.506 38.128 112.603 33.4687 110.902 28.7581C109.186 24.0072 106.476 18.6939 102.4 14.6271C95.3226 7.56661 88.6936 3.75147 81.3742 1.84469C74.4603 0.0435114 67.1913 0.0440672 59.3195 0.0446692C59.1755 0.0446803 59.0312 0.0446913 58.8867 0.0446913H49.2188V10.9764H58.8867C67.2836 10.9764 73.1889 11.0106 78.6059 12.4218Z" fill="white"/>
<path fill-rule="evenodd" clip-rule="evenodd" d="M103.319 67.6849H45.1096L40.3159 56.7531H103.319V67.6849Z" fill="white"/>
<path fill-rule="evenodd" clip-rule="evenodd" d="M76.507 30.3483C76.5104 30.3496 76.5104 30.3496 76.5074 30.3483C78.8601 31.3543 80.8195 32.3326 82.2825 33.8937C83.5672 35.2644 84.829 37.482 84.829 41.7219C84.829 44.5917 84.2445 48.0815 83.1443 51.9705H94.4594C95.3046 48.3729 95.7861 44.9087 95.7861 41.7221C95.7861 34.9451 93.6238 29.9888 90.2859 26.4274C87.1265 23.0562 83.2649 21.3442 80.8237 20.3005C78.7544 19.4157 75.6076 18.9411 72.5804 18.637C69.2972 18.3071 65.3186 18.1092 61.0886 18.0654C52.6828 17.978 42.8674 18.4944 35.1819 19.9551L37.2321 30.6937C43.9276 29.4212 52.9448 28.9131 60.9744 28.9964C64.9625 29.038 68.6024 29.2243 71.4825 29.5138C72.925 29.6586 74.1222 29.8239 75.0482 29.9966C75.5093 30.0826 75.87 30.1643 76.1387 30.2362C76.3774 30.2999 76.4891 30.3417 76.507 30.3483ZM70.2683 79.3C73.3474 74.5324 76.1836 69.3834 78.5241 64.2688H90.4529C90.0383 65.2903 89.6061 66.3097 89.1587 67.3241C87.3895 71.3357 85.3338 75.3797 83.0847 79.3H70.2683Z" fill="white"/>
<path fill-rule="evenodd" clip-rule="evenodd" d="M37.6803 30.3483C37.6774 30.3496 37.6776 30.3496 37.6808 30.3483C37.6988 30.3416 37.8106 30.2999 38.0491 30.2362C38.318 30.1643 38.6785 30.0826 39.1396 29.9966C40.0658 29.8239 41.263 29.6586 42.7053 29.5138C45.5856 29.2243 49.2255 29.038 53.2134 28.9964C61.243 28.9131 70.2602 29.4212 76.9559 30.6937L79.0061 19.9551C71.3204 18.4944 61.5052 17.978 53.0992 18.0654C48.8694 18.1092 44.8907 18.3071 41.6076 18.637C38.5802 18.9411 35.4334 19.4157 33.3642 20.3005L33.1405 20.3959C30.841 21.377 27.1774 22.94 24.2347 26.096C20.9843 29.5822 19.0867 34.4155 19.0867 41.0389C19.0867 48.6453 21.8298 57.8335 25.7141 66.6409C27.5862 70.8859 29.7792 75.1673 32.1827 79.3H45.049C41.5259 73.9275 38.3006 68.0371 35.7432 62.2382C32.0943 53.9647 30.0438 46.4138 30.0438 41.0387C30.0436 36.6452 31.2278 34.6462 32.2575 33.5416C33.4975 32.2116 35.1665 31.4232 37.6803 30.3483Z" fill="white"/>
</svg>
