<svg width="150" height="150" viewBox="0 0 150 150" fill="none" xmlns="http://www.w3.org/2000/svg">
<g clip-path="url(#clip0_1091_67)">
<path d="M43.0634 88.7107V24.9768H73.0718C80.0827 24.9768 86.2477 26.2818 91.5667 28.8919C96.885 31.5019 101.025 35.1742 103.987 39.9087C107.008 44.6432 108.52 50.2883 108.52 56.8437C108.52 63.3386 107.008 68.9835 103.987 73.7788C101.025 78.513 96.885 82.1857 91.5667 84.7957C86.2477 87.4057 80.0827 88.7107 73.0718 88.7107H43.0634ZM61.0141 74.325H72.3466C75.9727 74.325 79.116 73.6573 81.7755 72.322C84.495 70.9259 86.6107 68.9228 88.1212 66.3127C89.6325 63.642 90.3877 60.4857 90.3877 56.8437C90.3877 53.1411 89.6325 49.9847 88.1212 47.3747C86.6107 44.7646 84.495 42.7919 81.7755 41.4566C79.116 40.0605 75.9727 39.3624 72.3466 39.3624H61.0141V74.325Z" fill="black"/>
<path d="M3.53119 128.329V110.243H12.0836C14.0817 110.243 15.8387 110.613 17.3546 111.353C18.8704 112.094 20.0504 113.136 20.8944 114.48C21.7556 115.823 22.1863 117.425 22.1863 119.286C22.1863 121.129 21.7556 122.731 20.8944 124.091C20.0504 125.435 18.8704 126.477 17.3546 127.218C15.8387 127.959 14.0817 128.329 12.0836 128.329H3.53119ZM8.64713 124.247H11.8769C12.9104 124.247 13.8062 124.057 14.564 123.678C15.3392 123.282 15.9421 122.713 16.3727 121.973C16.8034 121.215 17.0186 120.32 17.0186 119.286C17.0186 118.235 16.8034 117.339 16.3727 116.599C15.9421 115.858 15.3392 115.298 14.564 114.919C13.8062 114.523 12.9104 114.325 11.8769 114.325H8.64713V124.247Z" fill="black"/>
<path d="M24.8779 128.329V110.243H29.9938V128.329H24.8779Z" fill="black"/>
<path d="M42.6769 128.691C41.2471 128.691 39.9208 128.467 38.6978 128.019C37.4748 127.554 36.4154 126.899 35.5197 126.055C34.6412 125.211 33.9522 124.221 33.4527 123.084C32.9531 121.93 32.7034 120.664 32.7034 119.286C32.7034 117.908 32.9531 116.65 33.4527 115.513C33.9522 114.359 34.6498 113.36 35.5456 112.516C36.4413 111.672 37.5007 111.026 38.7236 110.578C39.9639 110.113 41.3161 109.881 42.7802 109.881C44.4855 109.881 46.0099 110.165 47.3536 110.733C48.6971 111.301 49.8082 112.12 50.6866 113.188L47.431 116.134C46.8109 115.462 46.1392 114.962 45.4157 114.635C44.7094 114.29 43.9171 114.118 43.0386 114.118C42.2635 114.118 41.5572 114.238 40.9198 114.48C40.2826 114.721 39.7399 115.074 39.292 115.539C38.8442 115.987 38.4911 116.53 38.2327 117.167C37.9915 117.787 37.8709 118.493 37.8709 119.286C37.8709 120.044 37.9915 120.741 38.2327 121.378C38.4911 122.016 38.8442 122.567 39.292 123.032C39.7399 123.48 40.2739 123.833 40.894 124.091C41.5314 124.333 42.229 124.453 42.9869 124.453C43.7448 124.453 44.4855 124.333 45.209 124.091C45.9325 123.833 46.6645 123.403 47.4052 122.8L50.2732 126.391C49.2397 127.132 48.0426 127.7 46.6818 128.096C45.3209 128.493 43.986 128.691 42.6769 128.691ZM45.7516 125.719V118.898H50.2732V126.391L45.7516 125.719Z" fill="black"/>
<path d="M53.5167 128.329V110.243H58.6327V128.329H53.5167Z" fill="black"/>
<path d="M67.0266 118.175H75.372V122.128H67.0266V118.175ZM67.3883 128.329H62.2724V110.243H76.4573V114.196H67.3883V128.329Z" fill="black"/>
<path d="M87.8198 128.691C86.373 128.691 85.038 128.458 83.8147 127.993C82.5915 127.528 81.5235 126.874 80.6108 126.029C79.7153 125.168 79.0178 124.169 78.5183 123.032C78.018 121.895 77.7682 120.647 77.7682 119.286C77.7682 117.925 78.018 116.676 78.5183 115.539C79.0178 114.402 79.7153 113.412 80.6108 112.567C81.5235 111.706 82.5915 111.043 83.8147 110.578C85.038 110.113 86.373 109.881 87.8198 109.881C89.2838 109.881 90.6188 110.113 91.8248 110.578C93.0473 111.043 94.107 111.706 95.0025 112.567C95.898 113.412 96.5963 114.402 97.0958 115.539C97.6125 116.676 97.8705 117.925 97.8705 119.286C97.8705 120.647 97.6125 121.904 97.0958 123.058C96.5963 124.195 95.898 125.185 95.0025 126.029C94.107 126.874 93.0473 127.528 91.8248 127.993C90.6188 128.458 89.2838 128.691 87.8198 128.691ZM87.8198 124.453C88.5083 124.453 89.1458 124.333 89.7315 124.091C90.3345 123.85 90.8513 123.506 91.2818 123.058C91.7295 122.593 92.0745 122.041 92.3152 121.405C92.574 120.767 92.703 120.061 92.703 119.286C92.703 118.493 92.574 117.787 92.3152 117.167C92.0745 116.53 91.7295 115.987 91.2818 115.539C90.8513 115.074 90.3345 114.721 89.7315 114.48C89.1458 114.238 88.5083 114.118 87.8198 114.118C87.1305 114.118 86.4848 114.238 85.8818 114.48C85.296 114.721 84.7793 115.074 84.3315 115.539C83.901 115.987 83.556 116.53 83.298 117.167C83.0565 117.787 82.9365 118.493 82.9365 119.286C82.9365 120.061 83.0565 120.767 83.298 121.405C83.556 122.041 83.901 122.593 84.3315 123.058C84.7793 123.506 85.296 123.85 85.8818 124.091C86.4848 124.333 87.1305 124.453 87.8198 124.453Z" fill="black"/>
<path d="M100.55 128.329V110.243H108.818C110.472 110.243 111.893 110.51 113.081 111.044C114.287 111.578 115.217 112.352 115.872 113.368C116.527 114.368 116.854 115.556 116.854 116.935C116.854 118.295 116.527 119.475 115.872 120.474C115.217 121.456 114.287 122.214 113.081 122.748C111.893 123.265 110.472 123.524 108.818 123.524H103.392L105.666 121.378V128.329H100.55ZM111.738 128.329L107.242 121.74H112.694L117.215 128.329H111.738ZM105.666 121.922L103.392 119.57H108.508C109.576 119.57 110.368 119.338 110.885 118.872C111.419 118.407 111.686 117.761 111.686 116.935C111.686 116.09 111.419 115.435 110.885 114.97C110.368 114.505 109.576 114.273 108.508 114.273H103.392L105.666 111.922V121.922Z" fill="black"/>
<path d="M119.676 128.329V110.243H123.888L131.381 122.541H129.159L136.445 110.243H140.656L140.708 128.329H136.006L135.954 117.4H136.755L131.303 126.546H129.03L123.423 117.4H124.405V128.329H119.676Z" fill="black"/>
<path fill-rule="evenodd" clip-rule="evenodd" d="M0.861237 0H143.832V99.0458H135.219V8.6127H9.47394V99.0458H0.861237V0Z" fill="black"/>
<path fill-rule="evenodd" clip-rule="evenodd" d="M144.693 146.416H0L7.52948e-07 137.803H144.693V146.416Z" fill="black"/>
</g>
<defs>
<clipPath id="clip0_1091_67">
<rect width="150" height="150" fill="black"/>
</clipPath>
</defs>
</svg>
