<svg width="150" height="150" viewBox="0 0 150 150" fill="none" xmlns="http://www.w3.org/2000/svg">
<g clip-path="url(#clip0_1769_49910)">
<path d="M43.0635 88.7108V24.9768H73.0719C80.0828 24.9768 86.2478 26.2818 91.5668 28.8919C96.8851 31.502 101.025 35.1743 103.987 39.9087C107.009 44.6432 108.52 50.2883 108.52 56.8437C108.52 63.3386 107.009 68.9835 103.987 73.7788C101.025 78.513 96.8851 82.1858 91.5668 84.7958C86.2478 87.4058 80.0828 88.7108 73.0719 88.7108H43.0635ZM61.0141 74.325H72.3466C75.9728 74.325 79.1161 73.6574 81.7756 72.322C84.4951 70.9259 86.6108 68.9228 88.1213 66.3128C89.6326 63.642 90.3878 60.4857 90.3878 56.8437C90.3878 53.1411 89.6326 49.9847 88.1213 47.3747C86.6108 44.7647 84.4951 42.7919 81.7756 41.4566C79.1161 40.0605 75.9728 39.3624 72.3466 39.3624H61.0141V74.325Z" fill="white"/>
<path d="M3.53125 128.329V110.242H12.0837C14.0818 110.242 15.8388 110.613 17.3546 111.353C18.8704 112.094 20.0504 113.136 20.8945 114.48C21.7557 115.823 22.1863 117.425 22.1863 119.286C22.1863 121.129 21.7557 122.731 20.8945 124.091C20.0504 125.435 18.8704 126.477 17.3546 127.218C15.8388 127.959 14.0818 128.329 12.0837 128.329H3.53125ZM8.64719 124.246H11.8769C12.9105 124.246 13.8062 124.057 14.5641 123.678C15.3392 123.282 15.9421 122.713 16.3728 121.973C16.8034 121.215 17.0187 120.319 17.0187 119.286C17.0187 118.235 16.8034 117.339 16.3728 116.599C15.9421 115.858 15.3392 115.298 14.5641 114.919C13.8062 114.523 12.9105 114.325 11.8769 114.325H8.64719V124.246Z" fill="white"/>
<path d="M24.8779 128.329V110.242H29.9938V128.329H24.8779Z" fill="white"/>
<path d="M42.6769 128.691C41.2471 128.691 39.9208 128.467 38.6978 128.019C37.4748 127.554 36.4154 126.899 35.5197 126.055C34.6412 125.211 33.9522 124.221 33.4527 123.084C32.9531 121.93 32.7034 120.664 32.7034 119.286C32.7034 117.907 32.9531 116.65 33.4527 115.513C33.9522 114.359 34.6498 113.36 35.5456 112.516C36.4413 111.672 37.5007 111.026 38.7236 110.578C39.9639 110.113 41.3161 109.881 42.7802 109.881C44.4855 109.881 46.0099 110.165 47.3536 110.733C48.6971 111.301 49.8082 112.12 50.6866 113.188L47.431 116.134C46.8109 115.462 46.1392 114.962 45.4157 114.635C44.7094 114.29 43.9171 114.118 43.0386 114.118C42.2635 114.118 41.5572 114.238 40.9198 114.48C40.2826 114.721 39.7399 115.074 39.292 115.539C38.8442 115.987 38.4911 116.53 38.2327 117.167C37.9915 117.787 37.8709 118.493 37.8709 119.286C37.8709 120.043 37.9915 120.741 38.2327 121.378C38.4911 122.016 38.8442 122.567 39.292 123.032C39.7399 123.48 40.2739 123.833 40.894 124.091C41.5314 124.333 42.229 124.453 42.9869 124.453C43.7448 124.453 44.4855 124.333 45.209 124.091C45.9325 123.833 46.6645 123.403 47.4052 122.8L50.2732 126.391C49.2397 127.132 48.0426 127.7 46.6818 128.096C45.3209 128.493 43.986 128.691 42.6769 128.691ZM45.7516 125.719V118.898H50.2732V126.391L45.7516 125.719Z" fill="white"/>
<path d="M53.5166 128.329V110.242H58.6326V128.329H53.5166Z" fill="white"/>
<path d="M67.0266 118.174H75.372V122.128H67.0266V118.174ZM67.3884 128.329H62.2725V110.242H76.4573V114.196H67.3884V128.329Z" fill="white"/>
<path d="M87.8198 128.691C86.3731 128.691 85.0381 128.458 83.8148 127.993C82.5916 127.528 81.5236 126.874 80.6108 126.029C79.7153 125.168 79.0178 124.169 78.5183 123.032C78.0181 121.895 77.7683 120.646 77.7683 119.286C77.7683 117.925 78.0181 116.676 78.5183 115.539C79.0178 114.402 79.7153 113.412 80.6108 112.567C81.5236 111.706 82.5916 111.043 83.8148 110.578C85.0381 110.113 86.3731 109.881 87.8198 109.881C89.2838 109.881 90.6188 110.113 91.8248 110.578C93.0473 111.043 94.1071 111.706 95.0026 112.567C95.8981 113.412 96.5963 114.402 97.0958 115.539C97.6126 116.676 97.8706 117.925 97.8706 119.286C97.8706 120.646 97.6126 121.904 97.0958 123.058C96.5963 124.195 95.8981 125.185 95.0026 126.029C94.1071 126.874 93.0473 127.528 91.8248 127.993C90.6188 128.458 89.2838 128.691 87.8198 128.691ZM87.8198 124.453C88.5083 124.453 89.1458 124.333 89.7316 124.091C90.3346 123.85 90.8513 123.506 91.2818 123.058C91.7296 122.593 92.0746 122.041 92.3153 121.405C92.5741 120.767 92.7031 120.061 92.7031 119.286C92.7031 118.493 92.5741 117.787 92.3153 117.167C92.0746 116.53 91.7296 115.987 91.2818 115.539C90.8513 115.074 90.3346 114.721 89.7316 114.48C89.1458 114.238 88.5083 114.118 87.8198 114.118C87.1306 114.118 86.4848 114.238 85.8818 114.48C85.2961 114.721 84.7793 115.074 84.3316 115.539C83.9011 115.987 83.5561 116.53 83.2981 117.167C83.0566 117.787 82.9366 118.493 82.9366 119.286C82.9366 120.061 83.0566 120.767 83.2981 121.405C83.5561 122.041 83.9011 122.593 84.3316 123.058C84.7793 123.506 85.2961 123.85 85.8818 124.091C86.4848 124.333 87.1306 124.453 87.8198 124.453Z" fill="white"/>
<path d="M100.55 128.329V110.242H108.818C110.472 110.242 111.893 110.509 113.081 111.043C114.287 111.577 115.217 112.352 115.872 113.368C116.527 114.368 116.854 115.556 116.854 116.935C116.854 118.295 116.527 119.475 115.872 120.474C115.217 121.456 114.287 122.214 113.081 122.748C111.893 123.265 110.472 123.523 108.818 123.523H103.392L105.666 121.378V128.329H100.55ZM111.738 128.329L107.243 121.74H112.694L117.215 128.329H111.738ZM105.666 121.921L103.392 119.57H108.509C109.577 119.57 110.369 119.338 110.885 118.872C111.419 118.407 111.686 117.761 111.686 116.935C111.686 116.09 111.419 115.435 110.885 114.97C110.369 114.505 109.577 114.273 108.509 114.273H103.392L105.666 111.922V121.921Z" fill="white"/>
<path d="M119.676 128.329V110.242H123.888L131.381 122.541H129.159L136.445 110.242H140.657L140.708 128.329H136.006L135.954 117.4H136.755L131.303 126.546H129.03L123.423 117.4H124.405V128.329H119.676Z" fill="white"/>
<path fill-rule="evenodd" clip-rule="evenodd" d="M0.861328 0H143.832V99.0458H135.219V8.6127H9.47403V99.0458H0.861328V0Z" fill="white"/>
<path fill-rule="evenodd" clip-rule="evenodd" d="M144.693 146.416H0L7.52948e-07 137.803H144.693V146.416Z" fill="white"/>
</g>
<defs>
<clipPath id="clip0_1769_49910">
<rect width="150" height="150" fill="white"/>
</clipPath>
</defs>
</svg>
